<svg version="1.1" xmlns="http://www.w3.org/2000/svg" style="display: block;" viewBox="0 0 2048 2048" width="1024" height="1024" preserveAspectRatio="none">
<path transform="translate(0,0)" fill="rgb(45,45,45)" d="M 227.306 785.461 C 245.372 784.52 266.736 785.026 284.994 785.025 L 381.395 785.02 L 679.999 784.998 L 680.257 880.82 C 680.436 896.778 681.727 917.501 680.801 932.94 C 726.479 930.646 767.809 963.661 774.766 1008.75 C 778.534 1034.01 771.941 1059.73 756.483 1080.06 C 744.73 1095.71 724.599 1108.62 705.445 1113.19 C 699.737 1114.55 688.53 1115 681.699 1116 C 680.056 1126.54 680.251 1146.22 680.196 1157.29 L 680.15 1223.75 L 680.233 1263.09 C 648.254 1261.43 611.062 1262.75 578.581 1262.57 L 340.793 1262.31 C 318.205 1262.22 295.616 1262.28 273.028 1262.49 C 237.46 1262.91 207.168 1268.35 183.055 1236.18 C 167.74 1215.74 171.291 1194.57 170.95 1170.55 C 170.77 1157.84 171.013 1145.15 171.047 1132.5 L 171.693 978.628 C 171.759 948.872 171.602 919.116 171.222 889.363 C 171.074 873.237 169.764 851.813 172.086 836.298 C 176.013 810.067 202.025 788.326 227.306 785.461 z"/>
<path transform="translate(0,0)" fill="rgb(179,179,178)" d="M 454.511 890.483 C 463.497 897.274 490.415 925.673 499.428 934.762 L 588.47 1024.07 L 483.043 1129.5 L 454.672 1158.58 L 454.415 1100.51 C 478.47 1075.18 505.631 1048.89 530.474 1024 L 454.528 948.039 C 453.56 932.455 454.435 906.814 454.511 890.483 z"/>
<path transform="translate(0,0)" fill="rgb(179,179,178)" d="M 418.684 890.779 C 419.808 898.532 419.138 938.185 419.113 948.697 C 393.852 973.208 368.611 999.141 343.64 1024.08 L 419.005 1100.16 L 419.035 1158.35 L 391.306 1130.09 L 285.577 1024.13 C 329.342 980.179 374.24 933.761 418.684 890.779 z"/>
<path transform="translate(0,0)" fill="rgb(229,131,71)" d="M 720.046 784.639 C 734.379 785.934 760.274 785.125 775.647 785.104 L 877.946 785.058 L 1224.17 785.043 C 1225.75 831.698 1224.49 884.59 1224.97 932.086 C 1308.87 934.315 1350.12 1023.06 1293.75 1086.9 C 1274.91 1108.24 1252.77 1113.26 1225 1114.22 C 1224.93 1127.33 1226.21 1259.23 1223.77 1262.45 C 1215.54 1263.55 1184.11 1262.83 1174.11 1262.8 L 1072.06 1262.75 L 720.778 1262.9 C 719.989 1226.96 720.512 1187.03 720.994 1151.03 C 754.855 1135.18 775.155 1126.1 795.412 1093.1 C 834.794 1028.92 814.361 943.5 746.475 908.75 C 738.725 904.782 729.65 902.648 722.526 898.406 C 720.825 896.502 720.635 894.295 720.612 891.782 C 720.286 856.145 721.207 820.261 720.046 784.639 z M 984.625 888.1 C 981.579 913.939 978.546 935.067 957.16 953.659 C 950.018 959.867 939.286 964.694 932.091 971.201 C 931.95 980.207 931.968 989.215 932.147 998.221 C 942.479 998.714 953.758 999.377 964.003 998.253 L 963.993 1054.63 C 963.967 1085.56 960.201 1117.33 984.035 1140.56 C 997.173 1153.36 1012.26 1161.17 1030.89 1160.86 C 1051.08 1160.52 1059.03 1159.23 1077.4 1153.31 C 1083.5 1149.94 1087.51 1148.01 1092.42 1142.85 C 1089.17 1133.32 1083.73 1112.74 1076.61 1107.3 C 1065.66 1104.34 1054.81 1128.99 1022.84 1106.38 C 1015.53 1091.65 1018.54 1072.78 1018.61 1056.37 C 1018.7 1037.08 1018.31 1017.26 1018.91 998.027 L 1077.63 998.114 C 1075.99 987.021 1076.89 967.21 1076.05 954.348 C 1054.82 955.774 1037.25 953.248 1017.93 954.054 C 1016.85 932.544 1018.64 909.222 1017.84 886.95 L 1007.26 886.541 C 999.585 886.92 992.263 887.22 984.625 888.1 z"/>
<path transform="translate(0,0)" fill="rgb(73,152,149)" d="M 1266.14 784.984 C 1296.44 786.331 1338.09 785.062 1369.53 785.04 L 1580.68 785.007 C 1582.71 803.129 1580.95 819.498 1580.9 837.691 L 1581.07 931.635 C 1594.48 933.991 1606.5 934.286 1619.36 939.543 C 1699.71 972.397 1692.88 1092.09 1606.89 1112.39 C 1599.82 1114.06 1587.38 1113.46 1581.26 1115.99 C 1580.06 1155.9 1581.66 1196.52 1581.27 1236.49 C 1581.19 1244.76 1581.72 1253.08 1580.94 1261.32 C 1578.66 1263.65 1578.75 1262.84 1574.25 1262.98 L 1380.83 1262.86 C 1342.99 1262.72 1302.96 1261.71 1265.31 1262.83 C 1264.7 1226.18 1265.28 1187.95 1265.16 1150.99 C 1272.86 1146.5 1283.39 1143.41 1291.66 1138.85 C 1394.16 1082.27 1378.41 931.851 1265.81 898.421 C 1264.52 871.9 1265.01 845.31 1264.97 818.768 C 1264.96 807.487 1265 796.218 1266.14 784.984 z"/>
<path transform="translate(0,0)" fill="rgb(45,45,45)" d="M 1447.9 995.449 C 1463.64 991.997 1479.22 1001.9 1482.76 1017.62 C 1486.31 1033.34 1476.49 1048.98 1460.79 1052.61 C 1444.96 1056.28 1429.17 1046.37 1425.6 1030.51 C 1422.02 1014.66 1432.03 998.929 1447.9 995.449 z"/>
<path transform="translate(0,0)" fill="rgb(45,45,45)" d="M 1449.8 887.689 C 1465.82 885.256 1480.76 896.284 1483.17 912.303 C 1485.57 928.322 1474.51 943.247 1458.48 945.615 C 1442.51 947.976 1427.63 936.957 1425.24 920.984 C 1422.85 905.011 1433.83 890.115 1449.8 887.689 z"/>
<path transform="translate(0,0)" fill="rgb(45,45,45)" d="M 1451.19 1102.34 C 1461.66 1101.25 1471.9 1105.87 1478 1114.44 C 1484.11 1123.01 1485.13 1134.2 1480.68 1143.73 C 1476.22 1153.26 1466.99 1159.66 1456.5 1160.48 C 1440.58 1161.73 1426.61 1149.94 1425.15 1134.03 C 1423.7 1118.12 1435.31 1104 1451.19 1102.34 z"/>
<path transform="translate(0,0)" fill="rgb(45,45,45)" d="M 1621.97 785.087 C 1664.32 783.936 1709.33 785.674 1751.82 785.662 L 1798.65 785.548 C 1818.84 785.424 1835.23 783.444 1851.88 797.745 C 1877.8 820.01 1876.04 842.853 1875.91 873.678 C 1875.78 891.975 1875.78 910.272 1875.89 928.568 C 1876.17 990.889 1878.5 1053.56 1875.96 1115.78 C 1874.29 1156.52 1888.24 1207.99 1859.94 1241.89 C 1837.51 1268.77 1810.8 1259.97 1781.53 1262.38 L 1779.75 1262.54 C 1766.47 1261.78 1747.1 1262.36 1733.45 1262.35 L 1622.21 1262.94 C 1622.52 1237.72 1622.08 1212.24 1622.36 1187.03 C 1622.47 1176.88 1621.83 1160.01 1622.79 1150.43 C 1626.46 1146.85 1630.02 1147.32 1634.97 1145.13 C 1669.94 1129.7 1695.76 1104.01 1707.95 1067.34 C 1717.61 1038.29 1717.42 992.398 1702.11 964.861 C 1680.32 925.679 1661.29 911.499 1620.42 898.247 C 1619.03 885.684 1622.18 879.03 1622.18 866.135 C 1622.17 838.952 1621.35 812.289 1621.97 785.087 z"/>
</svg>