<svg version="1.1" xmlns="http://www.w3.org/2000/svg" style="display: block;" viewBox="0 0 2048 2048" width="1024" height="1024" preserveAspectRatio="none">
<path transform="translate(0,0)" fill="rgb(19,32,66)" d="M 409.968 758.979 L 578.018 759.185 C 610.38 759.236 644.716 759.881 676.943 759.026 C 720.625 762.608 756.4 780.415 780.973 817.763 C 817.616 873.456 807.076 950.186 755.351 993.352 C 733.363 1011.87 705.731 1022.35 676.995 1023.09 C 589.297 1024.14 497.514 1023.94 409.799 1023.53 C 411.378 936.812 410.056 846.094 409.968 758.979 z"/>
<path transform="translate(0,0)" fill="rgb(55,96,130)" d="M 676.943 759.026 C 720.625 762.608 756.4 780.415 780.973 817.763 C 817.616 873.456 807.076 950.186 755.351 993.352 C 733.363 1011.87 705.731 1022.35 676.995 1023.09 L 676.943 759.026 z"/>
<path transform="translate(0,0)" fill="rgb(72,190,192)" d="M 504.788 835.424 C 518.073 835.127 531.947 835.276 545.281 835.223 L 545.358 877.314 L 586.998 877.08 C 587.056 895.029 587.993 924.161 586.21 942.704 C 585.959 945.318 583.122 946.286 581.01 947.336 C 570.231 947.711 505.885 949.978 501.086 944.581 C 497.577 933.938 497.636 852.19 499.549 839.405 C 502.168 835.873 500.543 837.225 504.788 835.424 z"/>
<path transform="translate(0,0)" fill="rgb(72,190,192)" d="M 555.808 836.429 C 561.771 840.612 581.072 860.871 586.815 867.078 C 576.5 867.224 565.868 867.02 555.528 866.953 L 555.808 836.429 z"/>
<path transform="translate(0,0)" fill="rgb(241,158,48)" d="M 1227.17 758.574 C 1299.63 758.878 1372.09 758.711 1444.54 758.073 C 1410.44 776.565 1380.73 814.382 1369.66 851.744 C 1363.59 872.245 1365.21 887.369 1362.11 907.626 C 1351.84 974.573 1296.49 1020.8 1230.99 1023.57 C 1225.74 1024.14 1212.39 1023.87 1206.63 1023.86 L 1160.51 1023.83 L 1008.07 1024.02 C 1053.27 1002.33 1082.06 957.81 1090.51 909.093 C 1092.66 897.707 1091.57 885.466 1093.24 874.097 C 1103.51 804.281 1158.83 760.669 1227.17 758.574 z"/>
<path transform="translate(0,0)" fill="rgb(236,101,46)" d="M 1008.07 1024.02 C 1053.27 1002.33 1082.06 957.81 1090.51 909.093 C 1092.66 897.707 1091.57 885.466 1093.24 874.097 C 1103.51 804.281 1158.83 760.669 1227.17 758.574 C 1225.87 779.763 1225.97 817.348 1226.96 838.639 C 1218.71 845.679 1170.34 928.524 1171.11 938.464 C 1176.84 942.899 1215.72 940.916 1226.05 941.095 C 1228.48 952.873 1225.76 990.51 1226.58 1004.56 C 1226.9 1010.01 1226 1016.49 1227.17 1022.36 L 1230.99 1023.57 C 1225.74 1024.14 1212.39 1023.87 1206.63 1023.86 L 1160.51 1023.83 L 1008.07 1024.02 z"/>
<path transform="translate(0,0)" fill="rgb(72,190,192)" d="M 1226.96 838.639 C 1240.06 856.656 1250.57 877.103 1261.63 896.473 C 1266.71 905.378 1282.4 929.063 1281.72 938.66 C 1277.61 942.86 1235.06 940.927 1226.05 941.095 C 1215.72 940.916 1176.84 942.899 1171.11 938.464 C 1170.34 928.524 1218.71 845.679 1226.96 838.639 z"/>
<path transform="translate(0,0)" fill="rgb(202,126,58)" d="M 1220.84 874.045 C 1225.28 873.66 1227.06 873.117 1230.37 875.272 C 1234.78 883.27 1232.72 894.851 1231 903.865 C 1229.27 903.907 1221.77 904.332 1221.26 902.599 C 1219.16 895.407 1219.4 881.048 1220.84 874.045 z"/>
<path transform="translate(0,0)" fill="rgb(202,126,58)" d="M 1224.32 913.036 C 1227.06 913.23 1227.72 913.511 1230.4 914.278 C 1233.12 917.162 1232.26 915.534 1233.21 919.28 C 1232.28 922.811 1232.46 922.832 1229.92 925.685 C 1223.44 925.483 1219.91 925.121 1219.45 917.421 C 1221.8 913.466 1220.21 914.843 1224.32 913.036 z"/>
<path transform="translate(0,0)" fill="rgb(86,130,163)" d="M 933.931 758.921 C 977.241 758.664 1020.55 758.656 1063.86 758.895 C 1089.13 759.03 1124.43 760.103 1148.92 758.633 C 1140.25 764.382 1129.1 771.618 1121.29 778.589 C 1097.09 800.183 1080.5 831.507 1073.33 862.928 C 1069.73 878.728 1071.02 895.028 1068.44 909.434 C 1062.46 942.852 1039.67 981.113 1010.69 999.53 C 985.976 1015.23 963.002 1023 933.858 1022.98 C 871.414 1023.09 806.472 1021.78 744.383 1023.31 C 793.457 998.611 827.201 940.199 823.55 884.969 C 820.014 831.494 793.887 786.069 747.124 758.797 C 767.827 760.197 793.272 759.312 814.549 759.26 L 933.931 758.921 z"/>
<path transform="translate(0,0)" fill="rgb(112,188,225)" d="M 933.931 758.921 C 977.241 758.664 1020.55 758.656 1063.86 758.895 C 1089.13 759.03 1124.43 760.103 1148.92 758.633 C 1140.25 764.382 1129.1 771.618 1121.29 778.589 C 1097.09 800.183 1080.5 831.507 1073.33 862.928 C 1069.73 878.728 1071.02 895.028 1068.44 909.434 C 1062.46 942.852 1039.67 981.113 1010.69 999.53 C 985.976 1015.23 963.002 1023 933.858 1022.98 L 933.931 758.921 z"/>
<path transform="translate(0,0)" fill="rgb(19,32,66)" d="M 956.068 855.807 C 963.616 862.209 985.557 884.844 991.532 892.027 C 981.222 903.68 967.874 916.623 956.716 927.491 C 952.489 924.666 949.797 921.843 946.141 918.357 C 952.145 910.93 965.12 898.866 972.381 891.796 C 963.386 882.999 954.697 874.551 946.115 865.341 L 956.068 855.807 z"/>
<path transform="translate(0,0)" fill="rgb(19,32,66)" d="M 911.503 855.69 C 914.732 858.209 918.619 862.303 921.616 865.271 C 914.676 873.704 903.921 883.23 896.005 892.298 C 904.459 901.308 913.203 908.869 921.681 918.431 L 911.6 927.87 C 899.631 915.815 887.19 904.591 875.636 892.093 C 884.851 881.436 901.108 866.191 911.503 855.69 z"/>
<path transform="translate(0,0)" fill="rgb(241,158,48)" d="M 1627.88 758.492 L 1637.88 758.566 C 1638.61 782.639 1637.74 808.285 1637.96 832.547 C 1638.52 895.74 1637 959.887 1638.25 1022.99 C 1624.6 1024.18 1607.66 1023.8 1593.7 1023.81 L 1524.21 1023.85 C 1456.11 1023.88 1387.31 1024.44 1319.29 1023.64 L 1305.41 1023.97 C 1351.66 998.331 1377.26 957.09 1385.1 905.224 C 1386.59 895.087 1385.69 884.11 1387.18 874.036 C 1393.6 830.564 1417.82 798.192 1455.32 776.33 C 1490.9 755.586 1517.5 758.517 1556.4 758.583 C 1580.23 758.691 1604.06 758.661 1627.88 758.492 z"/>
<path transform="translate(0,0)" fill="rgb(19,32,66)" d="M 1478.59 835.419 C 1483.07 838.1 1498.78 853.202 1503.53 857.656 L 1549.29 900.507 L 1518.05 904.347 L 1533.53 938.75 L 1533.65 940.675 C 1530.66 943.082 1523.08 945.935 1519.23 947.57 C 1513.85 935.647 1508.39 923.764 1502.84 911.921 C 1494.76 918.596 1486.83 925.826 1478.99 932.802 L 1478.59 835.419 z"/>
<path transform="translate(0,0)" fill="rgb(19,32,66)" d="M 1609.19 1117 L 1638.05 1116.99 L 1638.03 1288.98 L 1615.57 1289.05 C 1617.63 1251.26 1615.57 1204.59 1616.39 1165.3 C 1616.82 1157.21 1617.82 1149.45 1618.79 1141.42 C 1607.59 1172.6 1596.49 1208.07 1583.3 1237.93 L 1565.97 1237.98 C 1553.65 1206.24 1541.87 1174.3 1530.62 1142.17 C 1531.56 1156.53 1532.59 1171 1532.97 1185.38 C 1533.87 1219.31 1532.13 1255.35 1533.79 1289.14 L 1511.2 1289.08 C 1512.56 1261.69 1511.21 1232.05 1511.71 1205.07 C 1511.92 1193.28 1510.49 1121.53 1512.73 1117.48 C 1521.39 1117.85 1531.16 1117.38 1539.9 1117.15 C 1551.78 1148.13 1564.9 1181.68 1575.17 1213.15 C 1581.7 1188.47 1599.78 1141.79 1609.19 1117 z"/>
<path transform="translate(0,0)" fill="rgb(19,32,66)" d="M 831.434 1117.5 C 839.811 1117.85 849.246 1117.53 857.708 1117.43 C 878.462 1173.49 897.976 1232.38 917.717 1289.02 L 891.957 1289.34 C 887.789 1273.86 880.885 1255.03 876.102 1239.17 L 862.25 1238.43 C 845.836 1238.39 827.983 1239.06 811.866 1238.71 C 806.816 1255.47 800.813 1271.86 795.741 1288.95 C 788.124 1289.25 779.787 1289.12 772.111 1289.16 C 775.067 1275.84 828.132 1121.46 831.434 1117.5 z M 817.085 1220.09 L 845.5 1220.14 L 870.01 1220.09 C 864.354 1200.98 857.633 1181.86 851.606 1162.83 C 850.668 1159.87 844.525 1139.45 843.596 1137.79 C 834.319 1165.99 827.202 1191.34 817.085 1220.09 z"/>
<path transform="translate(0,0)" fill="rgb(19,32,66)" d="M 698.222 1117.73 L 721.053 1117.54 C 720.677 1154.85 720.562 1192.16 720.706 1229.47 C 720.763 1246.68 721.696 1271.09 720.591 1287.74 C 718.014 1289.68 717.271 1288.95 713.25 1289.01 L 698.29 1289 C 699.268 1264.21 698.518 1233.14 698.27 1208 L 623.021 1208.01 L 623.107 1288.82 C 615.757 1288.6 607.399 1288.87 599.972 1288.94 C 601.125 1268.57 600.441 1242 600.446 1221.05 C 600.567 1186.63 600.493 1152.21 600.221 1117.79 L 623.104 1117.61 L 623.045 1189.16 C 639.543 1187.7 681.041 1188.2 698.225 1189.06 L 698.222 1117.73 z"/>
<path transform="translate(0,0)" fill="rgb(19,32,66)" d="M 1340.03 1117.03 C 1375.68 1117 1412.96 1118.97 1448.61 1117.09 C 1448.42 1123.71 1448.29 1130.34 1448.23 1136.97 C 1427.87 1135.43 1383.73 1136.35 1363.1 1137.06 L 1362.9 1189.72 C 1387.58 1189.22 1411.99 1190.04 1436.89 1189.1 C 1436.71 1195.62 1436.66 1202.15 1436.74 1208.67 C 1427.92 1208.01 1369.11 1207.38 1363.33 1209.33 L 1362.91 1211.75 C 1362.7 1231.19 1362.71 1250.63 1362.96 1270.07 C 1392.17 1269.39 1423.73 1270 1453.13 1270.01 L 1453.06 1288.99 L 1339.89 1289.14 C 1340.28 1231.77 1340.32 1174.4 1340.03 1117.03 z"/>
<path transform="translate(0,0)" fill="rgb(19,32,66)" d="M 959.64 1117.33 C 966.074 1117.69 973.474 1117.67 979.933 1117.56 C 1017.79 1116.89 1056.85 1118.95 1094.6 1117.03 L 1094.25 1137.06 C 1079.09 1135.22 1053.48 1136.63 1037.64 1136.86 C 1037.42 1168.99 1037.37 1201.12 1037.47 1233.25 L 1037.77 1288.99 L 1015.03 1289.03 C 1014.61 1238.37 1014.5 1187.71 1014.73 1137.05 C 996.283 1136.33 977.421 1136.8 958.933 1137.04 C 959.386 1130.61 959.465 1123.81 959.64 1117.33 z"/>
<path transform="translate(0,0)" fill="rgb(19,32,66)" d="M 1140.79 1117.05 C 1161.88 1118 1184.23 1117.67 1205.42 1117.69 C 1229.16 1117.93 1252.9 1117.77 1276.63 1117.23 C 1276.36 1124.37 1276.42 1129.98 1276.67 1137.13 C 1262.48 1135.43 1235.18 1136.53 1220.25 1137.01 C 1218.95 1164.08 1220.06 1202.61 1220.05 1230.5 L 1220.1 1289.2 L 1197.07 1289.14 C 1200.27 1243.07 1196.35 1184.54 1197.87 1136.79 C 1186.67 1135.64 1152.41 1136.1 1140.9 1136.93 L 1140.79 1117.05 z"/>
<path transform="translate(0,0)" fill="rgb(19,32,66)" d="M 409.843 1116.96 C 420.426 1118.34 447.489 1117.82 459.756 1117.73 C 487.357 1117.52 517.785 1118.49 545.098 1116.88 L 545.023 1136.65 C 530.971 1135.4 503.025 1136.25 488.832 1137.13 C 487.397 1166.97 488.351 1202.95 488.427 1233.25 C 488.399 1251.82 488.47 1270.39 488.639 1288.96 C 480.324 1288.46 474.249 1288.6 465.882 1288.89 C 467.458 1241.36 465.898 1185.53 466.003 1137.13 C 453.47 1135.97 422.476 1136.45 409.838 1137.06 L 409.843 1116.96 z"/>
</svg>