<svg version="1.1" xmlns="http://www.w3.org/2000/svg" style="display: block;" viewBox="0 0 2048 2048" width="1024" height="1024" preserveAspectRatio="none">
<path transform="translate(0,0)" fill="rgb(45,45,45)" d="M 205.148 637.525 C 211.813 636.529 234.607 637.007 242.758 637.015 L 316.803 637.086 L 576.972 637.02 C 575.963 677.433 577.115 719.998 576.874 760.705 C 568.952 762.789 561.793 763.933 553.268 766.19 C 526.387 773.307 498.812 797.696 485.857 822.091 C 471.699 849.096 468.754 880.593 477.659 909.755 C 487.974 943.362 517.252 975.111 551.325 985.368 C 560.553 988.146 572.435 987.537 580.727 992.005 C 580.124 1001.38 577.74 1016.14 577.664 1023.86 C 577.459 1044.8 578.545 1061.42 576.608 1082.51 C 553.428 1083.65 537.957 1090.06 519.578 1103.3 C 484.549 1125.29 470.222 1170.81 471.892 1210.21 C 457.903 1209.37 444.579 1211.28 430.687 1211.33 C 419.226 1211.37 407.743 1210.04 396.272 1209.88 C 365.462 1209.45 334.596 1209.81 303.781 1209.83 C 283.531 1209.85 263.254 1209.64 243.007 1209.93 C 231.015 1210.1 219.098 1211.05 207.099 1210.56 C 196.581 1210.12 183.934 1210.66 174.385 1205.82 C 163.862 1200.48 155.628 1189.55 152.031 1178.46 C 147.632 1164.91 149.936 1106.44 149.936 1088.06 L 149.969 917.229 L 149.946 746.286 C 149.926 727.42 149.644 708.877 149.257 690.005 C 149.91 682.886 149.363 670.706 152.359 664.518 C 164.643 639.154 180.3 638.294 205.148 637.525 z M 331.396 1014.03 C 335.27 1004.93 338.898 995.723 342.276 986.427 C 349.965 962.306 359.645 936.832 368.217 912.843 C 348.407 912.605 311.658 913.98 293.176 912.656 C 296.237 923.821 325.814 1006 331.396 1014.03 z M 322.791 858.035 C 310.887 856.701 293.5 856.948 281.483 857.518 C 278.265 857.855 276.132 857.384 274.543 859.184 C 276.977 868.647 285.122 891.639 289.307 900.35 C 292.497 895.986 296.878 889.609 300.26 885.645 C 307.073 876.64 314.926 865.969 322.791 858.035 z M 282.485 905.025 C 279.274 897.122 269.305 866.795 266.415 862.708 C 257.371 873.728 243.075 891.434 236.28 903.49 L 236.863 904.871 C 241.453 906.222 244.908 905.499 249.75 905.233 L 282.485 905.025 z M 376.552 889.318 C 379.863 879.669 383.319 868.836 387.038 859.435 C 368.904 856.863 353.583 861.148 338.875 857.765 C 350.407 871.604 361.599 886.419 372.655 900.692 C 373.855 897.407 375.788 892.587 376.552 889.318 z M 380.091 904.429 L 412.317 904.508 C 416.579 904.332 420.518 904.195 424.776 903.761 C 421.167 897.281 399.078 866.553 393.885 862.53 C 390.119 875.202 384.651 891.853 380.091 904.429 z M 330.718 861.314 C 321.76 869.456 303.309 894.333 294.611 905.136 C 305.093 904.998 319.975 904.469 329.945 905.39 C 341.791 905.381 353.637 905.25 365.481 904.996 C 358.182 892.758 340.786 871.943 330.718 861.314 z M 413.746 912.501 C 401.982 912.966 388.574 912.315 377.379 913.152 L 341.435 1010.92 C 345.402 1007.52 347.614 1005.82 350.807 1001.56 C 360.947 989.673 418.826 924.328 423.487 913.622 C 420.629 912.282 416.889 912.229 413.746 912.501 z M 252.145 912.533 C 247.225 912.6 242.877 912.66 237.944 913.063 L 237.493 914.205 C 258.216 944.103 290.978 974.284 310.229 1003.33 C 312.897 1006.43 312.738 1006.3 316.411 1008.11 L 317.657 1007.65 C 317.621 1000.82 289.482 925.583 285.377 912.916 L 252.145 912.533 z"/>
<path transform="translate(0,0)" fill="rgb(226,127,67)" d="M 1483.47 637.49 L 1484.44 637.437 C 1509.79 636.272 1540.92 637.054 1566.61 637.053 L 1716.09 637.053 L 1806.56 637.009 C 1824.38 637.011 1843.67 636.618 1861.36 638.474 C 1867.55 639.123 1879.92 646.059 1884.54 650.749 C 1895.77 662.167 1898 669.519 1898.13 684.609 C 1899.04 794.17 1898.65 903.776 1898.72 1013.33 L 1898.88 1117.91 C 1898.9 1130.36 1899.68 1159.51 1898.28 1170.46 C 1897.11 1180.23 1892.68 1189.32 1885.7 1196.26 C 1879.84 1202.07 1872.57 1206.24 1864.6 1208.37 C 1851.99 1211.77 1795.3 1210.31 1779.25 1210.27 C 1711.79 1210.67 1644.32 1210.61 1576.86 1210.09 C 1577.12 1191.35 1577.61 1177.12 1570.62 1159.26 C 1553.01 1114.29 1517.89 1089.06 1471.5 1080.8 L 1471.75 989.537 C 1491.97 988.681 1513.4 980.604 1529.35 968.358 C 1616.19 901.679 1577.7 776.289 1471.27 761.632 C 1469.83 723.71 1470.86 676.252 1470.76 637.69 C 1474.95 637.735 1479.27 637.582 1483.47 637.49 z"/>
<path transform="translate(0,0)" fill="rgb(254,254,254)" d="M 1687.72 974.56 C 1697.44 972.987 1706.6 979.584 1708.19 989.304 C 1709.78 999.024 1703.19 1008.19 1693.48 1009.8 C 1683.74 1011.4 1674.54 1004.8 1672.95 995.061 C 1671.36 985.32 1677.98 976.137 1687.72 974.56 z"/>
<path transform="translate(0,0)" fill="rgb(254,254,254)" d="M 1687.05 907.605 C 1696.65 905.668 1706.01 911.824 1708.03 921.4 C 1710.06 930.976 1703.99 940.395 1694.43 942.506 C 1684.75 944.646 1675.18 938.479 1673.13 928.778 C 1671.08 919.078 1677.33 909.566 1687.05 907.605 z"/>
<path transform="translate(0,0)" fill="rgb(254,254,254)" d="M 1688.19 840.667 C 1697.86 839.327 1706.81 846.02 1708.26 855.677 C 1709.71 865.334 1703.12 874.361 1693.48 875.923 C 1687.15 876.95 1680.75 874.492 1676.73 869.488 C 1672.71 864.484 1671.7 857.705 1674.07 851.741 C 1676.44 845.777 1681.83 841.547 1688.19 840.667 z"/>
<path transform="translate(0,0)" fill="rgb(226,127,67)" d="M 596.616 637.475 C 606.433 638.499 636.109 637.762 647.215 637.76 L 752.105 637.744 L 916.733 637.723 C 948.058 637.717 982.861 638.506 1013.81 637.098 C 1014.45 675.246 1015.89 723.986 1013.77 761.542 C 886.576 773.861 869.231 955.136 995.64 987.484 C 1000.57 988.745 1009.62 988.652 1012.56 992.6 C 1014.01 1009.3 1013.09 1036.07 1013.07 1053.9 L 1013.31 1168.97 C 1013.34 1174.17 1014.39 1207.7 1012.75 1210.1 C 956.877 1209.45 899.375 1210.33 843.304 1210.34 L 596.247 1210.13 C 595.44 1136.77 595.393 1063.41 596.106 990.05 C 619.142 988.694 641.118 979.912 658.742 965.018 C 733.962 902.033 705.863 788.964 610.821 764.489 C 606.367 763.342 601.017 763.072 596.399 762.723 C 597.053 734.799 596.233 707.094 596.041 679.231 C 595.98 670.456 595.279 645.137 596.616 637.475 z M 755.863 900.356 C 755.012 910.134 754.561 916.528 754.567 926.186 L 774.86 926.187 C 775.027 951.273 773.193 975.563 776.354 1000.35 C 783.692 1010.12 789.074 1016.33 801.208 1020.73 C 817.818 1026.76 836.966 1025.97 852.397 1016.99 C 854.684 1015.44 857.219 1014.53 857.103 1011.88 C 856.753 1003.93 853.495 993.014 848.714 986.866 C 846.833 987.165 837.066 992.163 831.195 993.751 C 821.724 990.671 821.064 990.378 815.075 982.236 C 814.4 963.94 815.4 943.784 814.357 926.106 L 850.779 926.012 C 849.75 917.047 850.07 904.239 850.037 894.944 C 838.603 896.593 825.812 896.365 814.219 896.172 C 814.468 881.512 814.441 866.848 814.141 852.189 L 799.536 852.359 C 796.312 852.573 791.366 852.45 788.963 854.139 C 784.758 861.567 786.146 863.505 783.914 871.288 C 779.584 886.386 767.461 892.597 755.863 900.356 z"/>
<path transform="translate(0,0)" fill="rgb(45,45,45)" d="M 1034.89 637.203 C 1055.86 636.423 1080.24 637.008 1101.47 636.999 C 1151.22 636.731 1200.97 636.946 1250.71 637.643 C 1316.76 637.935 1385.75 635.484 1451.63 637.16 C 1452.18 677.968 1451.5 720.724 1451.26 761.575 C 1433.32 762.347 1416.12 770.246 1400.9 779.181 C 1320.65 826.292 1333.54 957.944 1424.59 983.602 C 1433.88 986.218 1443.3 987.45 1452.63 989.83 C 1450.45 1019.1 1452.39 1049.3 1452.43 1078.64 C 1452.44 1082.09 1441.27 1084.23 1438.56 1084.62 C 1413.1 1088.3 1388.07 1104.92 1371.87 1124.43 L 1370.92 1125.6 C 1348.84 1155.07 1343.71 1173.81 1348.14 1210 C 1283.7 1208.81 1215.61 1210.12 1150.88 1210.09 L 1069.88 1210.26 C 1058.15 1210.33 1046.51 1209.34 1034.85 1210.35 L 1032.32 1054.58 C 1032.25 1048.29 1033.65 1039.94 1033.75 1033.18 C 1033.97 1018.83 1034.03 1004.51 1034.06 990.167 C 1048.55 990.553 1076.35 980.585 1088.28 971.517 C 1140.2 932.06 1157.1 863.214 1116.97 809.066 C 1095.94 780.694 1069.87 766.567 1035.06 762.015 C 1034.58 720.536 1034.86 678.709 1034.89 637.203 z M 1243.4 984.588 C 1245.78 988.275 1249.49 989.861 1253.43 991.763 C 1258.77 989.621 1267.99 981.917 1270.18 982.196 C 1272.14 986.577 1271.67 1001.96 1270.76 1006.93 C 1267.53 1011.25 1263.46 1015.86 1261.94 1020.85 L 1262.49 1022.8 C 1267.85 1023.85 1274.39 1018.86 1278.92 1016.12 C 1313.33 995.301 1312.12 950.989 1291.02 921.167 C 1289.52 919.055 1288.63 917.415 1286.11 916.308 C 1281.65 923.28 1289.23 939.491 1268.69 940.337 C 1266.73 932.477 1270.14 920.117 1269.36 912.001 C 1267.56 893.528 1250.31 861.156 1232.48 853.36 C 1233.77 868.852 1229.85 884.247 1221.48 897.371 C 1206.01 921.627 1176.28 939.449 1179.65 971.812 C 1181.45 989.06 1186.21 1000.85 1199.45 1012.59 C 1203.8 1016.43 1216.89 1024.27 1222.38 1022.52 C 1222.79 1019.47 1219.98 1018.01 1218.33 1015.43 C 1213.01 1007.12 1209.79 996.301 1210.87 986.422 C 1213.01 970.296 1231.02 962.156 1232.78 945.789 C 1232.96 944.111 1233.74 942.403 1234.4 940.883 L 1236.2 939.964 C 1248.92 948.337 1233.08 969.346 1243.4 984.588 z"/>
<path transform="translate(0,0)" fill="rgb(66,146,146)" d="M 573.349 782.506 C 574.649 782.092 573.814 782.238 575.889 782.59 C 579.711 794.578 579.118 970.238 575.045 972.818 C 569.74 968.938 558.976 968.203 551.784 965.484 C 538.809 960.58 532.373 955.416 521.712 946.805 C 504.302 928.243 493.567 909.712 491.359 883.796 C 489.012 858.645 496.954 833.616 513.373 814.419 C 527.246 798.356 552.019 783.977 573.349 782.506 z"/>
<path transform="translate(0,0)" fill="rgb(66,146,146)" d="M 1012.2 782.095 L 1013.41 782.543 C 1014.23 788.216 1013.82 808.346 1014.17 815.752 C 1016.03 854.422 1013.99 893.239 1014.96 931.921 C 1015.21 941.535 1013.39 958.976 1015.05 967.321 C 1013.8 968.947 1012.72 970.069 1010.38 969.789 C 990.589 967.417 972.826 959.448 959.015 946.669 C 930.782 920.423 928.694 891.196 931.242 854.95 C 931.95 844.89 937.036 833.207 942.379 824.846 C 959.954 797.347 982.161 788.895 1012.2 782.095 z"/>
<path transform="translate(0,0)" fill="rgb(66,146,146)" d="M 596.85 781.79 C 644.462 784.729 681.471 829.005 681.901 876.178 C 682.146 903.03 672.531 924.895 653.621 943.872 C 635.747 962.038 621.889 967.022 596.439 970.259 C 595.383 948.704 596.599 925.146 596.378 903.415 C 595.965 862.757 596.058 822.447 596.85 781.79 z"/>
<path transform="translate(0,0)" fill="rgb(66,146,146)" d="M 1441.71 783.512 C 1446.19 783.118 1447.14 782.298 1450.68 783.85 C 1451.94 792.952 1451.23 830.314 1451.26 841.243 C 1451.14 884.201 1451.36 927.159 1451.9 970.113 C 1430.03 969.997 1416.73 961.725 1399.36 949.748 C 1357.93 910.182 1353.01 847.687 1396.11 805.84 C 1409.19 793.144 1424.37 788.299 1441.71 783.512 z"/>
<path transform="translate(0,0)" fill="rgb(66,146,146)" d="M 1471.87 782.508 C 1551.16 789.36 1583.96 885.427 1528.43 943.15 C 1512.95 958.698 1493.2 968.651 1471.12 969.272 C 1470.8 908.736 1469.21 842.809 1471.87 782.508 z"/>
<path transform="translate(0,0)" fill="rgb(66,146,146)" d="M 1034.14 781.608 C 1051.73 782.907 1070.65 791.268 1084.29 802.452 C 1103.86 818.804 1116.09 842.287 1118.28 867.693 C 1120.94 898.094 1111.36 920.796 1092.24 943.611 C 1088.41 946.437 1085.03 950.087 1080.81 952.861 C 1065.23 963.11 1052 966.211 1034.8 970.973 C 1033.78 958.065 1033.92 941.271 1033.65 928.083 C 1032.68 879.277 1034.9 830.475 1034.14 781.608 z"/>
<path transform="translate(0,0)" fill="rgb(66,146,146)" d="M 571.304 1102.34 C 574.374 1101.7 572.974 1101.47 575.718 1102.29 C 578.666 1117.74 576.435 1134.82 577.077 1150.56 C 577.878 1170.17 577.401 1189.62 576.906 1209.24 C 551.801 1208.77 525.649 1209.08 500.46 1209.03 C 497.062 1209.15 495.838 1209.39 492.511 1208.42 C 492.314 1207.74 492.117 1207.06 491.921 1206.38 C 488.252 1151.55 518.568 1112.15 571.304 1102.34 z"/>
<path transform="translate(0,0)" fill="rgb(66,146,146)" d="M 1445.26 1102.16 C 1449.38 1101.73 1447.82 1101.12 1450.78 1102.73 C 1451.75 1112.82 1451 1123.46 1451.22 1133.6 C 1451.74 1158.16 1450.17 1185.47 1451.74 1209.8 C 1426.33 1209.53 1400.91 1209.52 1375.5 1209.76 L 1369.94 1209.73 C 1368.52 1208.48 1367.38 1207.02 1367.24 1205.03 C 1363.66 1151.87 1393.59 1112.64 1445.26 1102.16 z"/>
<path transform="translate(0,0)" fill="rgb(66,146,146)" d="M 1472.6 1101.38 C 1517.15 1110.29 1549.42 1136.04 1555.42 1183.99 C 1556.03 1188.85 1557.43 1205.99 1554.92 1209 L 1471.29 1209.04 C 1471.25 1170.43 1469.03 1141.06 1472.6 1101.38 z"/>
<path transform="translate(0,0)" fill="rgb(45,45,45)" d="M 850.587 1348.41 C 878.072 1347.75 894.926 1357.53 897.117 1387.26 C 898.311 1403.46 893.062 1462.74 901.888 1473.25 C 899.049 1476.04 898.437 1476.38 895.019 1475.36 C 890.54 1470.44 890.492 1461.12 889.854 1454.49 C 878 1467.47 864.311 1475.78 846.56 1476.6 C 818.804 1477.89 804.392 1466.39 803.74 1438.75 C 810.402 1400.36 861.12 1404.73 890.106 1405.68 C 890.255 1389.36 892.677 1368.15 875.528 1359.54 C 862.221 1352.86 849.333 1353.36 835.427 1357.49 C 822.759 1361.26 818.762 1371.05 813.405 1382.11 L 810.204 1382.96 L 808.386 1381.73 C 807.277 1375.77 810.874 1367.34 814.724 1362.86 C 824.178 1351.86 836.834 1349.4 850.587 1348.41 z M 834.979 1470.16 C 859.752 1471.16 874.658 1466.03 889.376 1444.32 C 889.935 1432.64 889.663 1422.39 889.978 1411.06 L 866.061 1411.52 C 850.285 1411.9 828.888 1411.43 818.173 1424.08 C 800.786 1444.6 814.813 1462.4 834.979 1470.16 z"/>
<path transform="translate(0,0)" fill="rgb(45,45,45)" d="M 1225.43 1348.41 C 1264.06 1348.17 1276.05 1375.14 1276 1408.75 C 1248.8 1407.09 1211.43 1408.86 1182.82 1408.98 C 1181.57 1446.02 1204.25 1477.97 1244.58 1468.87 C 1254.7 1464.65 1259.32 1460.26 1268.13 1454.57 C 1268.96 1454.04 1271.12 1455.56 1272.11 1456.07 C 1272.32 1457.72 1272.71 1457.71 1271.6 1458.97 C 1257.74 1474.72 1242.06 1477.93 1221.65 1475.71 C 1165.75 1469.66 1159.61 1377.92 1204.5 1353.62 C 1211.61 1349.77 1217.65 1349.16 1225.43 1348.41 z M 1182.43 1402.18 L 1231.91 1402.14 C 1244.42 1402.12 1257.31 1402.27 1269.77 1402.06 C 1265.1 1374.45 1256.32 1352.68 1223.43 1354.37 C 1197.91 1357.75 1185.76 1378.72 1182.43 1402.18 z"/>
<path transform="translate(0,0)" fill="rgb(45,45,45)" d="M 1381.42 1348.34 C 1405.39 1347.09 1417.99 1354 1425.22 1377.3 C 1430.28 1366.17 1437.19 1356.79 1448.61 1352.28 C 1468.95 1344.11 1497.99 1346.62 1505.82 1370.86 C 1512.27 1390.84 1508.04 1415.36 1509.36 1436.43 C 1509.73 1442.38 1510.03 1470.73 1508.69 1473.67 L 1505.36 1474.01 C 1491.29 1467.59 1525.97 1349.77 1469.92 1354.51 C 1420.1 1358.72 1426.54 1396.5 1426.75 1432.5 C 1426.7 1443.7 1427.73 1460.21 1426.47 1471.32 C 1426.22 1473.57 1424.33 1474.54 1422.66 1475.38 L 1420.68 1474.25 C 1415.74 1463.33 1423.34 1397.7 1418.19 1379.29 C 1407.86 1342.29 1360.17 1349.2 1347.36 1379.73 C 1341.52 1393.64 1342.76 1407.63 1342.82 1422.46 L 1343.04 1459.05 C 1343.08 1463.33 1343.8 1471.74 1342.05 1474.94 C 1338.91 1476.43 1340.61 1476.05 1336.69 1475.48 C 1335.52 1469.02 1335.89 1453.45 1335.9 1446.2 L 1335.96 1397.54 C 1335.97 1390.54 1335.47 1355.76 1336.24 1350.51 L 1337.6 1349.55 C 1340.9 1349.77 1339.51 1349.15 1341.89 1351.5 C 1344.12 1358.02 1343.21 1368.47 1343.11 1375.71 C 1352.59 1358.64 1361.63 1350.6 1381.42 1348.34 z"/>
<path transform="translate(0,0)" fill="rgb(45,45,45)" d="M 650.02 1296.45 C 653.523 1296.86 654.118 1296.34 656.543 1298.17 C 658.176 1317.1 656.998 1355.97 656.982 1376.36 C 669.021 1356.76 678.843 1348.71 702.938 1348.51 C 732.562 1347.85 742.238 1372.6 740.976 1398.3 C 739.766 1422.96 741.925 1449.31 740.668 1473.98 C 738.551 1475.97 739.711 1475.24 736.983 1475.91 L 735.329 1474.38 C 733.433 1468.28 734.32 1399.39 733.992 1385.93 C 728.949 1346.64 685.948 1345.25 665.044 1372.9 C 654.6 1386.72 656.711 1402.37 656.799 1418.91 L 657.003 1457.23 C 657.031 1462.93 658.971 1473.45 653.464 1475.31 L 651.975 1474.36 C 648.576 1467.75 650.176 1426.24 650.155 1415.28 L 650.02 1296.45 z"/>
<path transform="translate(0,0)" fill="rgb(45,45,45)" d="M 976.129 1350.1 C 976.164 1338.95 974.754 1325.46 978.545 1315.23 L 980.769 1314.69 C 985.027 1321.49 983.935 1341.65 983.862 1350.2 C 992.251 1349.99 1004.55 1349.01 1011.94 1352.36 L 1012.3 1353.81 C 1006.32 1357.62 990.592 1356.31 983.211 1356.09 L 983.411 1417.81 C 983.454 1430.28 982.747 1443.7 984.868 1455.95 C 987.19 1469.37 996.744 1470.66 1008.49 1469.9 C 1012.99 1469.44 1012.09 1468.81 1015.08 1470.75 C 1015.41 1474.02 1015.68 1472.39 1013.39 1475.61 C 1011.13 1476.35 1010.05 1476.75 1007.72 1477.12 C 999.987 1476.51 988.71 1476.36 983.342 1470.05 C 973.548 1458.53 976.056 1435.28 976.075 1420.83 L 976.188 1356.71 C 969.693 1356.16 957.296 1357.82 953.299 1355.76 C 952.901 1352.09 952.346 1353.37 953.717 1350.81 C 959.567 1349.56 969.758 1350.04 976.129 1350.1 z"/>
<path transform="translate(0,0)" fill="rgb(1,1,1)" d="M 1008.49 1469.9 C 1012.99 1469.44 1012.09 1468.81 1015.08 1470.75 C 1015.41 1474.02 1015.68 1472.39 1013.39 1475.61 C 1011.13 1476.35 1010.05 1476.75 1007.72 1477.12 L 1008.49 1469.9 z"/>
<path transform="translate(0,0)" fill="rgb(45,45,45)" d="M 1084.17 1314 C 1086.96 1314 1087.69 1313.76 1090.25 1314.88 C 1091.88 1319.23 1091.1 1343.69 1091.02 1350.07 C 1099.52 1349.9 1112.03 1348.86 1119.38 1352.44 L 1119.61 1353.85 C 1113.51 1357.67 1098.69 1356.59 1091.01 1356.48 C 1090.32 1386.34 1090.41 1417.6 1090.91 1447.56 C 1091.3 1470.96 1104.12 1470.58 1123.25 1468.83 C 1123.24 1471.88 1123.41 1472.26 1122.38 1475.21 C 1121.75 1475.63 1121.14 1476.12 1120.31 1476.2 C 1078.94 1480.32 1083.8 1455.51 1083.89 1420.19 L 1083.91 1356.28 C 1075.35 1356.56 1068.67 1357.64 1060.88 1354.28 L 1060.49 1352.85 C 1066.21 1348.69 1076.92 1349.86 1083.93 1350.05 C 1083.83 1338.03 1083.91 1326.02 1084.17 1314 z"/>
<path transform="translate(0,0)" fill="rgb(45,45,45)" d="M 549.645 1315.39 C 552.91 1315.58 553.19 1315.44 556.322 1316.67 C 556.977 1320.69 556.279 1344.08 556.41 1350.06 C 564.315 1349.87 582.21 1347.25 585.876 1354.66 C 583.77 1356.98 562.078 1356.64 556.493 1357.04 C 555.693 1382.88 556.173 1408.97 556.011 1434.77 C 555.829 1463.78 555.75 1472.34 587.632 1469.59 C 587.637 1473.81 588.259 1472.05 586.39 1475.26 C 573.613 1480.66 551.968 1473.68 550.764 1457.14 C 549.803 1443.94 549.717 1432.47 549.74 1419.26 L 549.842 1356.52 C 544.082 1356.06 529.857 1357.31 526.359 1355.62 L 525.904 1352.35 C 530.471 1348.69 543.209 1349.88 549.862 1349.95 L 549.645 1315.39 z"/>
<path transform="translate(0,0)" fill="rgb(1,1,1)" fill-opacity="0.984314" d="M 893.946 1522.01 C 913.886 1521.46 920.528 1531.95 916.895 1552.84 C 915.789 1559.2 911.357 1563.36 905.797 1566.5 C 877.919 1567.33 875.006 1534.57 893.946 1522.01 z M 900.054 1563.85 C 921.245 1559.65 919.211 1526.02 899.857 1523.99 C 894.401 1525.48 891.153 1526.75 888.273 1532.04 C 885.062 1537.97 884.358 1544.93 886.319 1551.38 C 888.491 1558.45 892.738 1562.55 900.054 1563.85 z"/>
<path transform="translate(0,0)" fill="rgb(1,1,1)" fill-opacity="0.980392" d="M 940.097 1522.04 C 967.148 1520.58 974.438 1527.72 970.61 1555.41 C 968.715 1558.2 967.134 1559.75 964.848 1562.17 C 957.413 1567.16 949.692 1566.11 940.823 1566.01 C 940.553 1551.39 940.883 1536.61 940.097 1522.04 z M 943.834 1563.03 C 953.048 1563.23 956.068 1564.26 963.532 1559.17 C 975.126 1542.06 969.305 1523.43 946.676 1524.43 L 944.931 1524.5 C 942.782 1528.4 943.724 1556.89 943.834 1563.03 z"/>
<path transform="translate(0,0)" fill="rgb(1,1,1)" fill-opacity="0.984314" d="M 858.41 1520.7 L 859.69 1522.59 C 859.946 1532.9 861.109 1556.49 858.35 1565.29 L 857.614 1563.67 L 858.692 1563.53 L 857.49 1562.65 C 856.577 1551.71 856.967 1538.59 856.308 1527.02 L 838.766 1568.22 C 836.153 1562.28 823.049 1531.13 820.47 1528.86 C 819.989 1536.63 821.429 1560.09 819.286 1565.27 C 817.177 1560.09 815.872 1525.26 819.101 1521.9 C 824.412 1524.05 833.351 1552.1 837.99 1559.34 C 842.897 1559.4 848.389 1527.73 858.41 1520.7 z"/>
<path transform="translate(0,0)" fill="rgb(1,1,1)" fill-opacity="0.968627" d="M 1148.69 1520.37 C 1152.83 1522.64 1173.1 1553.49 1177.93 1560.06 C 1178.28 1549.22 1176.43 1530.23 1179.82 1521.54 L 1180.7 1521.82 C 1181.67 1536.15 1181.22 1553.19 1180.89 1567.6 C 1174.71 1563.33 1156.89 1535.35 1151.31 1527.03 C 1151.28 1534.95 1152.72 1560.99 1150.11 1566.38 C 1146.92 1561.99 1147.98 1527.01 1148.69 1520.37 z"/>
<path transform="translate(0,0)" fill="rgb(1,1,1)" d="M 1205.99 1521.6 C 1215.04 1522.23 1221.07 1521.73 1230.97 1522.9 L 1231.51 1523.61 C 1223.03 1524.95 1218.66 1524.96 1209.97 1524.98 L 1209.57 1542.07 C 1216.47 1541.92 1223.78 1541.36 1230.33 1543.38 C 1226.99 1546 1214.47 1545.12 1209.89 1545.03 C 1209.62 1550.27 1209.87 1557.47 1209.9 1562.87 C 1214.77 1562.74 1229.19 1562.22 1233.19 1564.36 C 1230.08 1566.41 1212.51 1566.01 1207.24 1566.57 L 1206.28 1566.68 C 1206.02 1551.65 1205.92 1536.63 1205.99 1521.6 z"/>
<path transform="translate(0,0)" fill="rgb(1,1,1)" d="M 995.139 1522.54 C 1001.12 1522.16 1014.17 1521.19 1019.76 1522.96 C 1013.3 1524.46 1004.73 1524.55 997.939 1524.85 C 997.815 1530.44 997.914 1536.39 997.909 1542.01 C 1004.44 1541.95 1012.05 1541.48 1018.08 1543.92 C 1012.3 1544.91 1005.41 1544.9 999.477 1545.11 L 997.941 1546.17 L 998.037 1563.11 C 1007.01 1563.13 1012.31 1563.06 1021.07 1564.45 L 1020.56 1565.2 C 1012.07 1566.6 1003.54 1566.38 994.929 1566.43 C 994.676 1554.4 993.982 1534.09 995.139 1522.54 z"/>
<path transform="translate(0,0)" fill="rgb(1,1,1)" d="M 1073.04 1520.6 C 1076.69 1523.98 1075.4 1556.27 1075.6 1563.08 C 1082.35 1562.99 1092.14 1562.42 1098.32 1564.25 L 1098.52 1565.88 L 1072.46 1566.46 C 1072.32 1552.89 1071.73 1533.64 1073.04 1520.6 z"/>
<path transform="translate(0,0)" fill="rgb(1,1,1)" d="M 1119.19 1521.21 L 1121.11 1521.86 C 1123.76 1525.93 1122.59 1561.74 1121.54 1567.69 C 1116.75 1559.96 1120 1532.65 1119.19 1521.21 z"/>
</svg>